<svg xmlns="http://www.w3.org/2000/svg" width="20" height="20" viewBox="0 0 48 48"><g><path fill="#4285F4" d="M24 9.5c3.54 0 6.7 1.22 9.19 3.22l6.85-6.85C35.44 2.36 30.03 0 24 0 14.61 0 6.44 5.74 2.44 14.09l7.99 6.21C12.13 13.16 17.61 9.5 24 9.5z"/><path fill="#34A853" d="M46.1 24.5c0-1.64-.15-3.22-.43-4.75H24v9.02h12.44c-.54 2.91-2.18 5.38-4.64 7.04l7.19 5.59C43.56 37.36 46.1 31.44 46.1 24.5z"/><path fill="#FBBC05" d="M10.43 28.3c-1.13-3.36-1.13-6.94 0-10.3l-7.99-6.21C.16 16.36 0 20.09 0 24c0 3.91.16 7.64 2.44 12.21l7.99-6.21z"/><path fill="#EA4335" d="M24 44c6.03 0 11.44-1.99 15.63-5.44l-7.19-5.59c-2.01 1.35-4.59 2.13-8.44 2.13-6.39 0-11.87-3.66-13.57-8.8l-7.99 6.21C6.44 42.26 14.61 48 24 48z"/></g></svg>